<?xml version="1.0" standalone="no"?>
<!DOCTYPE svg PUBLIC "-//W3C//DTD SVG 20010904//EN"
 "http://www.w3.org/TR/2001/REC-SVG-20010904/DTD/svg10.dtd">
<svg version="1.0" xmlns="http://www.w3.org/2000/svg"
 width="802.000000pt" height="704.000000pt" viewBox="0 0 802.000000 704.000000"
 preserveAspectRatio="xMidYMid meet">

<g transform="translate(0.000000,704.000000) scale(0.100000,-0.100000)"
fill="#000000" stroke="none">
<path d="M1865 6740 l-780 -5 -65 -28 c-135 -57 -241 -162 -301 -297 l-24 -55
-5 -540 c-3 -297 -8 -545 -12 -551 -4 -6 -36 -28 -71 -48 -139 -81 -241 -205
-288 -347 -22 -68 -24 -88 -23 -264 0 -104 6 -314 13 -465 6 -151 16 -383 21
-515 6 -132 15 -334 20 -450 34 -740 53 -1229 75 -1955 9 -278 20 -525 26
-550 31 -133 165 -299 289 -358 36 -17 86 -36 110 -41 66 -15 6290 -15 6362 0
178 37 355 225 388 410 5 30 14 236 20 459 9 368 19 639 50 1435 6 149 17 441
25 650 8 209 24 635 37 948 25 642 25 636 -45 772 -54 104 -151 206 -250 265
-42 24 -80 53 -85 65 -5 11 -10 79 -11 150 -2 152 -4 160 -47 246 -50 102
-120 171 -222 222 l-85 42 -1556 5 c-1482 5 -1559 6 -1611 24 -192 64 -328
180 -480 406 -131 194 -249 300 -391 349 -72 26 -146 27 -1084 21z m1018 -120
c78 -24 167 -88 218 -157 20 -26 76 -104 124 -173 78 -111 119 -165 205 -264
14 -16 43 -42 64 -57 21 -16 35 -29 31 -29 -5 0 -1 -6 8 -12 16 -12 14 -13
-10 -14 -16 -1 -44 -5 -63 -9 l-35 -7 -19 56 c-13 39 -32 69 -61 95 -83 76
-12 72 -1115 69 l-985 -3 -41 -22 c-41 -22 -102 -82 -125 -125 -9 -15 -15 -75
-17 -168 l-4 -145 -38 -41 c-35 -38 -39 -40 -55 -25 -15 15 -15 14 -5 -13 6
-16 9 -31 6 -33 -9 -9 -23 55 -15 68 8 12 12 11 24 -5 19 -25 19 -18 0 28 -14
34 -35 49 -35 25 0 -19 -59 25 -71 53 -6 15 -15 26 -19 23 -15 -10 -19 50 -22
330 -4 334 0 349 90 443 57 59 113 94 187 118 31 10 230 13 876 13 812 1 839
0 902 -19z m384 -653 l38 -37 0 -128 0 -127 -1062 -3 -1063 -2 -2 97 c0 54 0
109 1 123 4 39 33 81 71 101 34 19 73 19 1007 17 l973 -3 37 -38z m3760 -200
c38 -20 68 -50 94 -92 21 -33 24 -50 9 -40 -5 3 -10 1 -10 -6 0 -6 -8 -9 -20
-6 -11 3 -18 1 -14 -4 9 -15 -5 -10 -48 19 l-42 27 -1787 3 -1787 2 -4 43 c-3
23 -3 47 0 54 2 8 33 13 85 16 45 2 849 3 1787 3 1608 -1 1707 -2 1737 -19z
m81 -192 c-3 -3 -9 2 -12 12 -6 14 -5 15 5 6 7 -7 10 -15 7 -18z m-157 -18
c46 -31 60 -62 57 -127 -3 -55 -3 -55 -38 -60 -19 -3 -1355 -4 -2967 -2
l-2933 2 0 58 c1 69 15 98 66 128 l39 24 2871 0 2871 0 34 -23z m284 -401
c115 -32 240 -125 292 -217 59 -103 67 -175 53 -489 -23 -563 -32 -753 -51
-1170 -30 -678 -32 -700 -39 -700 -3 0 -11 5 -18 12 -9 9 -10 4 -3 -19 12 -41
-14 -55 -31 -18 -6 14 -18 25 -27 24 -10 0 -12 -2 -3 -6 17 -7 15 -33 -3 -33
-7 0 -18 -7 -23 -17 -6 -9 -16 -14 -26 -10 -22 9 -24 -6 -31 -233 -3 -107 -12
-341 -20 -520 -8 -179 -17 -406 -20 -505 -12 -351 -27 -433 -99 -512 -53 -59
-106 -81 -211 -87 -226 -14 -2952 -40 -3185 -31 -69 3 -620 7 -1225 11 -1225
6 -1574 14 -1620 35 -51 22 -107 71 -136 117 -50 79 -57 145 -79 732 -11 300
-25 637 -31 750 -6 113 -11 225 -11 250 -1 35 -2 38 -5 13 -2 -18 -9 -33 -15
-33 -13 0 -1 73 13 78 5 2 8 16 8 30 -2 25 -2 25 -6 4 -3 -13 -11 -26 -19 -29
-8 -3 -15 -19 -16 -37 -1 -17 -4 3 -8 44 l-6 75 -2 -77 c-3 -102 -6 -108 -54
-108 -23 0 -37 4 -33 10 3 6 22 10 41 10 24 0 34 5 34 15 0 11 -11 15 -38 15
-21 0 -43 5 -50 12 -16 16 -16 41 1 32 9 -6 8 -3 -1 8 -13 16 -15 37 -26 303
-15 333 -47 1009 -62 1275 -8 162 -16 376 -17 475 l-2 180 37 78 c68 142 196
241 353 274 47 9 732 11 3210 9 2921 -3 3154 -4 3210 -20z m163 -2673 c-2 -10
-10 -18 -18 -18 -8 0 -16 8 -18 18 -2 12 3 17 18 17 15 0 20 -5 18 -17z m52
-5 c0 -19 -2 -20 -10 -8 -13 19 -13 30 0 30 6 0 10 -10 10 -22z m30 7 c0 -8
-4 -15 -10 -15 -5 0 -7 7 -4 15 4 8 8 15 10 15 2 0 4 -7 4 -15z m-6943 -57
c-3 -8 -6 -5 -6 6 -1 11 2 17 5 13 3 -3 4 -12 1 -19z m6920 -190 c-3 -8 -6 -5
-6 6 -1 11 2 17 5 13 3 -3 4 -12 1 -19z"/>
<path d="M3470 5956 c0 -2 7 -7 16 -10 8 -3 12 -2 9 4 -6 10 -25 14 -25 6z"/>
<path d="M940 5710 c0 -5 7 -10 15 -10 8 0 15 5 15 10 0 6 -7 10 -15 10 -8 0
-15 -4 -15 -10z"/>
<path d="M2265 4486 c-144 -24 -270 -71 -335 -125 l-25 -20 25 -2 c14 -1 41
-1 60 0 30 1 19 -7 -75 -56 -236 -123 -381 -278 -468 -498 -53 -134 -69 -226
-70 -395 0 -119 4 -161 22 -234 28 -107 66 -195 125 -284 46 -70 64 -92 150
-183 l53 -55 59 7 c32 4 84 8 114 8 l55 1 -68 41 c-38 22 -98 68 -134 102
-241 226 -320 555 -213 889 50 158 172 349 255 399 17 11 49 19 75 19 36 0 50
-6 76 -31 32 -31 35 -32 116 -30 69 1 92 -3 135 -23 67 -32 129 -94 160 -163
22 -48 25 -65 21 -137 -6 -99 -27 -145 -97 -208 -186 -167 -500 -38 -501 205
0 32 4 66 10 76 7 14 4 23 -11 37 -19 17 -20 17 -55 -17 -117 -115 -171 -400
-115 -612 43 -161 160 -338 295 -446 102 -80 167 -115 262 -140 132 -33 282
-116 270 -148 -4 -11 -2 -13 9 -10 8 4 17 1 21 -5 10 -15 136 -2 247 26 527
134 828 632 706 1166 -50 218 -216 452 -420 590 -32 23 -59 45 -59 50 0 19 39
31 63 19 22 -12 22 -12 3 9 -50 57 -200 129 -341 163 -105 25 -295 33 -400 15z
m630 -359 c28 -17 70 -42 95 -56 73 -41 83 -51 150 -141 127 -171 182 -332
182 -530 1 -173 -36 -301 -124 -437 -67 -102 -130 -166 -226 -231 -74 -49
-228 -120 -238 -109 -2 2 34 30 79 64 242 178 358 341 403 563 37 183 -5 406
-103 557 -12 19 -18 20 -39 11 -27 -12 -29 -19 -13 -35 20 -20 6 -124 -20
-159 -72 -97 -235 -104 -317 -12 -57 62 -74 159 -41 224 20 40 82 94 107 94
36 0 50 12 50 43 0 22 10 40 40 68 l40 38 -60 38 c-97 62 -65 72 35 10z m-220
-742 c42 -42 30 -104 -25 -124 -55 -19 -100 12 -100 70 0 70 77 103 125 54z
m266 -208 c67 -45 76 -144 18 -198 -55 -51 -140 -44 -187 16 -89 113 49 263
169 182z"/>
<path d="M5510 4494 c-14 -2 -52 -9 -85 -15 -75 -13 -224 -63 -273 -92 -62
-35 -142 -96 -142 -108 0 -4 33 0 73 7 104 20 108 18 42 -23 -216 -133 -380
-325 -444 -522 -72 -221 -76 -437 -10 -636 128 -385 449 -624 888 -663 49 -4
89 -5 89 -2 -2 24 3 33 13 23 12 -12 49 -6 49 8 0 5 8 9 18 9 14 0 15 2 2 10
-10 6 -20 4 -31 -6 -23 -20 -33 -17 -12 4 27 28 112 74 126 68 8 -3 8 -5 -2
-5 -11 -1 -11 -4 -1 -16 8 -9 9 -15 2 -15 -6 0 -13 4 -17 10 -3 5 -12 7 -20 3
-12 -4 -10 -9 9 -24 39 -31 41 -29 49 52 1 10 25 25 62 39 108 42 283 169 377
275 144 162 217 399 189 614 -12 97 -47 206 -90 283 -28 51 -37 56 -65 35 -16
-12 -16 -14 -2 -26 23 -19 21 -98 -3 -137 -71 -116 -221 -133 -321 -35 -61 58
-78 111 -60 189 15 67 49 107 110 129 44 16 50 21 61 61 7 27 23 52 40 64 l28
21 -61 44 c-34 23 -56 43 -49 43 14 0 112 -57 121 -70 3 -4 23 -10 44 -13 55
-9 102 -50 168 -148 138 -202 186 -359 175 -573 -8 -167 -57 -309 -152 -441
-59 -83 -174 -187 -251 -227 -35 -18 -61 -35 -58 -37 2 -2 59 -3 126 -2 l121
3 52 49 c194 185 307 467 292 725 -17 274 -108 487 -282 660 -90 89 -159 140
-276 203 l-94 51 50 0 c43 0 47 2 35 14 -35 34 -155 89 -246 112 -96 25 -296
40 -364 28z m-287 -423 c30 -28 38 -30 99 -30 109 1 187 -34 250 -113 129
-160 78 -386 -107 -470 -68 -31 -180 -32 -246 -1 -132 60 -200 196 -166 330 7
27 5 33 -13 43 -20 10 -27 7 -62 -27 -147 -143 -182 -474 -74 -717 55 -125
201 -299 328 -394 42 -31 75 -58 74 -60 -8 -8 -115 43 -186 89 -261 167 -406
471 -370 773 28 230 185 524 319 597 52 28 113 20 154 -20z m702 -686 c29 -28
32 -61 9 -93 -34 -49 -96 -45 -127 7 -14 23 -15 35 -7 58 22 58 82 71 125 28z
m281 -204 c66 -40 81 -142 27 -195 -56 -56 -132 -55 -187 3 -99 103 37 267
160 192z"/>
<path d="M4548 3557 c-13 -30 -9 -188 6 -250 14 -61 33 -96 21 -38 -4 19 -10
95 -14 170 -3 76 -9 128 -13 118z"/>
<path d="M3508 2833 c-49 -31 -61 -80 -66 -261 -2 -90 1 -216 8 -280 56 -553
218 -869 488 -952 160 -50 331 2 451 136 58 65 125 181 158 272 108 296 156
900 83 1042 -26 51 -57 67 -108 54 -32 -8 -45 -21 -102 -106 -84 -125 -120
-162 -200 -201 -60 -30 -72 -32 -170 -32 -93 0 -111 3 -163 27 -73 34 -160
122 -205 205 -55 104 -111 135 -174 96z m680 -1032 c23 -12 42 -25 42 -29 0
-4 17 -24 37 -46 20 -21 37 -48 38 -60 1 -11 7 -22 13 -22 24 -3 24 -4 5 -21
-10 -10 -13 -14 -6 -9 33 22 19 -6 -29 -56 -80 -84 -124 -103 -233 -102 -74 0
-97 4 -133 23 -23 13 -44 27 -47 31 -7 12 23 21 53 15 l27 -5 -25 10 c-18 8
-31 8 -49 0 -21 -10 -27 -6 -62 32 -21 24 -39 51 -39 61 0 31 43 83 65 79 16
-2 17 -1 5 7 -12 8 -10 15 15 41 16 16 36 30 46 30 9 0 19 6 22 14 15 39 182
44 255 7z"/>
<path d="M3950 1790 c-8 -5 -10 -10 -5 -10 6 0 17 5 25 10 8 5 11 10 5 10 -5
0 -17 -5 -25 -10z"/>
<path d="M4228 1718 c-3 -7 -3 -19 -1 -26 4 -10 9 -8 19 5 7 10 14 21 14 26 0
12 -28 8 -32 -5z"/>
<path d="M3888 1695 c-11 -17 -13 -78 -3 -81 6 -2 16 0 24 5 11 7 12 13 4 23
-6 7 -13 24 -15 38 -1 14 -6 21 -10 15z"/>
<path d="M3808 1663 c-6 -30 -2 -60 9 -60 8 0 9 6 2 18 -5 10 -6 25 -3 33 3 9
3 16 0 16 -3 0 -7 -3 -8 -7z"/>
<path d="M3947 1629 c-9 -6 -15 -15 -11 -20 10 -17 48 -27 62 -17 17 14 15 28
-3 28 -8 0 -15 5 -15 10 0 13 -10 12 -33 -1z"/>
<path d="M4148 1613 c7 -3 16 -2 19 1 4 3 -2 6 -13 5 -11 0 -14 -3 -6 -6z"/>
<path d="M4218 1613 c7 -3 16 -2 19 1 4 3 -2 6 -13 5 -11 0 -14 -3 -6 -6z"/>
<path d="M3827 1583 c-3 -5 6 -16 19 -26 18 -13 24 -15 24 -4 0 24 -33 47 -43
30z"/>
<path d="M4052 1574 c-15 -16 -8 -34 13 -34 15 0 28 27 19 41 -7 13 -17 11
-32 -7z"/>
<path d="M4262 1578 c-7 -7 -12 -18 -12 -25 0 -8 7 -6 20 7 11 11 20 22 20 25
0 9 -16 5 -28 -7z"/>
<path d="M3890 1510 c0 -5 5 -10 10 -10 6 0 10 5 10 10 0 6 -4 10 -10 10 -5 0
-10 -4 -10 -10z"/>
<path d="M1858 2623 c7 -3 16 -2 19 1 4 3 -2 6 -13 5 -11 0 -14 -3 -6 -6z"/>
<path d="M7340 2605 c0 -14 4 -25 9 -25 4 0 6 11 3 25 -2 14 -6 25 -8 25 -2 0
-4 -11 -4 -25z"/>
<path d="M2046 2603 c-6 -14 -5 -15 5 -6 7 7 10 15 7 18 -3 3 -9 -2 -12 -12z"/>
<path d="M1895 2599 c-11 -16 -1 -19 13 -3 7 8 8 14 3 14 -5 0 -13 -5 -16 -11z"/>
<path d="M6308 2603 c6 -2 18 -2 25 0 6 3 1 5 -13 5 -14 0 -19 -2 -12 -5z"/>
<path d="M580 2590 c0 -5 7 -10 16 -10 8 0 12 5 9 10 -3 6 -10 10 -16 10 -5 0
-9 -4 -9 -10z"/>
<path d="M6045 2590 c-13 -6 -15 -9 -5 -9 8 0 22 4 30 9 18 12 2 12 -25 0z"/>
<path d="M1838 2583 c7 -3 16 -2 19 1 4 3 -2 6 -13 5 -11 0 -14 -3 -6 -6z"/>
<path d="M7341 2554 c0 -11 3 -14 6 -6 3 7 2 16 -1 19 -3 4 -6 -2 -5 -13z"/>
<path d="M5745 2510 c3 -5 14 -10 23 -10 15 0 15 2 2 10 -20 13 -33 13 -25 0z"/>
<path d="M1645 2450 c-3 -5 -1 -10 4 -10 6 0 11 5 11 10 0 6 -2 10 -4 10 -3 0
-8 -4 -11 -10z"/>
<path d="M5678 2439 c-10 -7 -8 -9 5 -9 10 0 15 -4 12 -10 -4 -6 5 -10 19 -10
16 0 26 6 26 14 0 16 -43 27 -62 15z"/>
<path d="M6274 2435 c-7 -17 10 -35 34 -35 20 0 10 44 -11 48 -9 2 -20 -4 -23
-13z"/>
<path d="M6460 2436 c0 -10 9 -16 21 -16 24 0 21 23 -4 28 -10 2 -17 -3 -17
-12z"/>
<path d="M2300 2430 c0 -5 5 -10 10 -10 6 0 10 5 10 10 0 6 -4 10 -10 10 -5 0
-10 -4 -10 -10z"/>
<path d="M5808 2423 c7 -3 16 -2 19 1 4 3 -2 6 -13 5 -11 0 -14 -3 -6 -6z"/>
<path d="M2460 2415 c0 -5 5 -17 10 -25 5 -8 10 -10 10 -5 0 6 -5 17 -10 25
-5 8 -10 11 -10 5z"/>
<path d="M6190 2411 c0 -5 7 -11 15 -15 9 -3 15 0 15 9 0 8 -7 15 -15 15 -8 0
-15 -4 -15 -9z"/>
<path d="M6376 2395 c7 -17 20 -20 28 -6 3 5 -1 12 -10 15 -22 9 -24 8 -18 -9z"/>
<path d="M6443 2360 c1 -11 5 -20 9 -20 4 0 8 9 8 20 0 11 -4 20 -9 20 -6 0
-9 -9 -8 -20z"/>
<path d="M1806 2351 c-4 -5 -2 -20 3 -33 9 -21 10 -21 10 10 1 32 -3 39 -13
23z"/>
<path d="M1403 2343 c-19 -7 -16 -20 7 -26 10 -3 24 1 30 8 8 9 6 14 -7 17
-10 3 -24 3 -30 1z"/>
<path d="M1581 2330 c-3 -55 -12 -70 -42 -70 -23 0 -29 4 -29 22 0 21 0 21
-21 2 -18 -16 -19 -19 -5 -22 9 -2 16 -13 16 -28 0 -21 4 -24 40 -24 38 0 40
-2 40 -30 0 -28 -2 -30 -40 -30 -36 0 -40 -2 -40 -25 0 -22 4 -25 40 -25 33 0
40 -3 40 -20 0 -17 7 -20 40 -20 22 0 40 5 40 10 0 6 33 10 79 10 44 0 83 5
86 10 3 6 15 10 25 10 13 0 17 5 14 15 -4 8 -18 15 -34 15 -16 0 -30 7 -34 15
-3 9 0 15 9 15 8 0 15 4 15 9 0 15 -18 23 -25 11 -10 -16 -65 -8 -66 10 0 13
-1 13 -7 0 -4 -8 -11 -16 -17 -16 -5 -1 -20 -5 -32 -9 -14 -4 -23 -2 -23 4 0
6 -8 11 -18 11 -22 0 -52 34 -52 60 0 16 6 13 35 -18 29 -31 36 -34 45 -22 8
13 10 13 10 -2 0 -30 30 -20 45 15 7 17 12 33 11 34 -1 1 -17 -2 -37 -6 -29
-7 -40 -4 -63 14 -18 14 -25 27 -20 38 3 9 1 17 -4 17 -6 0 -13 10 -15 23 -4
21 -4 21 -6 -3z m204 -220 c4 -6 -18 -10 -59 -10 -36 0 -66 3 -66 8 0 11 118
13 125 2z"/>
<path d="M1616 2327 c3 -10 9 -15 12 -12 3 3 0 11 -7 18 -10 9 -11 8 -5 -6z"/>
<path d="M1775 2320 c-3 -5 -1 -10 4 -10 6 0 11 5 11 10 0 6 -2 10 -4 10 -3 0
-8 -4 -11 -10z"/>
<path d="M6232 2310 c0 -14 2 -19 5 -12 2 6 2 18 0 25 -3 6 -5 1 -5 -13z"/>
<path d="M6617 2290 c-3 -11 -2 -32 2 -47 7 -25 7 -25 25 -7 12 11 15 19 7 22
-6 2 -11 12 -11 22 0 27 -17 34 -23 10z"/>
<path d="M5645 2287 c-4 -10 -5 -21 -1 -24 10 -10 18 4 13 24 -4 17 -4 17 -12
0z"/>
<path d="M1620 2280 c0 -5 5 -10 10 -10 6 0 10 5 10 10 0 6 -4 10 -10 10 -5 0
-10 -4 -10 -10z"/>
<path d="M1870 2276 c0 -9 7 -16 16 -16 9 0 14 5 12 12 -6 18 -28 21 -28 4z"/>
<path d="M6250 2273 c0 -15 29 -49 30 -35 0 7 -7 20 -15 28 -8 9 -15 11 -15 7z"/>
<path d="M6488 2263 c12 -2 30 -2 40 0 9 3 -1 5 -23 4 -22 0 -30 -2 -17 -4z"/>
<path d="M6760 2220 c0 -43 15 -55 22 -17 5 29 -1 57 -13 57 -5 0 -9 -18 -9
-40z"/>
<path d="M1821 2211 c-19 -12 -4 -31 25 -31 22 0 23 3 14 20 -12 22 -18 24
-39 11z"/>
<path d="M6449 2213 c-1 -5 -1 -12 0 -17 1 -5 -5 -6 -14 -2 -10 4 -14 2 -9 -5
4 -7 0 -9 -12 -6 -11 3 -32 0 -49 -8 -30 -13 -30 -13 -4 -14 32 -1 67 -25 51
-35 -24 -15 -13 -36 19 -36 29 0 30 1 15 22 -20 29 -21 68 -1 68 8 0 15 9 15
20 0 19 -9 29 -11 13z"/>
<path d="M6250 2190 c0 -5 5 -10 11 -10 5 0 7 5 4 10 -3 6 -8 10 -11 10 -2 0
-4 -4 -4 -10z"/>
<path d="M6308 2193 c7 -3 16 -2 19 1 4 3 -2 6 -13 5 -11 0 -14 -3 -6 -6z"/>
<path d="M2503 2183 c-24 -2 -43 -9 -43 -15 0 -6 10 -8 22 -5 12 3 29 2 39 -3
13 -7 18 -5 22 10 3 11 4 19 4 18 -1 -1 -21 -3 -44 -5z"/>
<path d="M6682 2148 c-25 -13 -26 -41 -1 -46 12 -2 18 6 21 27 3 17 4 31 4 30
-1 0 -11 -5 -24 -11z"/>
<path d="M6749 2122 c-3 -20 -2 -29 4 -23 5 5 7 19 5 32 -3 20 -5 19 -9 -9z"/>
<path d="M6330 2104 c0 -17 22 -14 28 4 2 7 -3 12 -12 12 -9 0 -16 -7 -16 -16z"/>
<path d="M6238 2103 c12 -2 32 -2 45 0 12 2 2 4 -23 4 -25 0 -35 -2 -22 -4z"/>
<path d="M2290 2085 c7 -8 19 -15 26 -15 8 0 14 7 14 15 0 10 -10 15 -26 15
-22 0 -25 -2 -14 -15z"/>
<path d="M5795 2090 c-3 -5 -1 -10 4 -10 6 0 11 5 11 10 0 6 -2 10 -4 10 -3 0
-8 -4 -11 -10z"/>
<path d="M6558 2079 c-10 -5 -18 -21 -18 -34 0 -21 -5 -24 -42 -28 l-43 -4 42
-1 c33 -2 46 3 55 18 8 12 24 20 40 20 18 0 28 5 28 15 0 8 -4 15 -9 15 -5 0
-15 2 -23 5 -7 2 -21 0 -30 -6z"/>
<path d="M6670 2075 c-17 -20 -8 -50 15 -51 18 -1 20 4 17 32 -5 37 -13 42
-32 19z"/>
<path d="M1426 2055 c-22 -22 -20 -35 4 -35 23 0 38 26 23 41 -7 7 -16 5 -27
-6z"/>
<path d="M2501 2054 c0 -11 3 -14 6 -6 3 7 2 16 -1 19 -3 4 -6 -2 -5 -13z"/>
<path d="M6710 2060 c0 -5 5 -10 10 -10 6 0 10 5 10 10 0 6 -4 10 -10 10 -5 0
-10 -4 -10 -10z"/>
<path d="M5717 2053 c-13 -12 -7 -33 8 -33 8 0 15 9 15 20 0 20 -11 26 -23 13z"/>
<path d="M2220 2030 c0 -5 18 -10 40 -10 22 0 40 5 40 10 0 6 -18 10 -40 10
-22 0 -40 -4 -40 -10z"/>
<path d="M2380 2030 c0 -6 -7 -10 -15 -10 -16 0 -20 -27 -6 -49 11 -18 34 -4
26 17 -7 19 11 32 44 32 31 0 25 5 -16 13 -19 4 -33 2 -33 -3z"/>
<path d="M1820 2010 c0 -5 18 -10 40 -10 22 0 40 5 40 10 0 6 -18 10 -40 10
-22 0 -40 -4 -40 -10z"/>
<path d="M1980 1980 c0 -37 2 -41 15 -30 8 7 15 20 15 30 0 10 -7 23 -15 30
-13 11 -15 7 -15 -30z"/>
<path d="M2400 1999 c0 -5 5 -7 10 -4 6 3 10 8 10 11 0 2 -4 4 -10 4 -5 0 -10
-5 -10 -11z"/>
<path d="M5715 2000 c-3 -5 -2 -10 4 -10 5 0 13 5 16 10 3 6 2 10 -4 10 -5 0
-13 -4 -16 -10z"/>
<path d="M5808 1965 c-3 -14 -1 -28 3 -31 5 -3 9 9 9 25 0 38 -6 40 -12 6z"/>
<path d="M6540 1965 c0 -16 6 -25 15 -25 21 0 31 30 14 41 -23 14 -29 11 -29
-16z"/>
<path d="M1660 1955 c0 -11 11 -15 40 -15 29 0 40 4 40 15 0 11 -11 15 -40 15
-29 0 -40 -4 -40 -15z"/>
<path d="M6068 1933 c7 -3 16 -2 19 1 4 3 -2 6 -13 5 -11 0 -14 -3 -6 -6z"/>
<path d="M6142 1923 c2 -13 14 -19 41 -21 32 -3 37 0 37 17 0 18 -6 21 -41 21
-33 0 -40 -3 -37 -17z"/>
<path d="M6520 1926 c0 -2 7 -7 16 -10 8 -3 12 -2 9 4 -6 10 -25 14 -25 6z"/>
<path d="M1823 1901 c-3 -12 -13 -21 -25 -21 -11 0 -16 -5 -13 -11 4 -6 14 -7
24 -3 15 6 49 11 131 17 19 2 38 -1 41 -6 8 -12 81 4 86 18 2 6 -14 11 -34 13
-21 1 -75 5 -121 8 -79 5 -84 4 -89 -15z"/>
<path d="M2132 1911 c-7 -4 -6 -12 3 -24 9 -13 20 -16 39 -11 15 3 25 11 23
17 -4 14 -51 27 -65 18z"/>
<path d="M2080 1898 c0 -4 4 -8 9 -8 6 0 12 4 15 8 3 5 -1 9 -9 9 -8 0 -15 -4
-15 -9z"/>
<path d="M6302 1893 c3 -14 12 -17 41 -15 30 3 37 0 37 -15 1 -17 1 -17 12 1
14 25 -13 46 -60 46 -27 0 -33 -4 -30 -17z"/>
<path d="M6120 1891 c0 -5 5 -13 10 -16 6 -3 10 -2 10 4 0 5 -4 13 -10 16 -5
3 -10 2 -10 -4z"/>
<path d="M6445 1890 c11 -5 27 -9 35 -9 9 0 8 4 -5 9 -11 5 -27 9 -35 9 -9 0
-8 -4 5 -9z"/>
<path d="M6235 1850 c-18 -8 -18 -9 5 -9 14 0 34 4 45 9 18 8 18 9 -5 9 -14 0
-34 -4 -45 -9z"/>
<path d="M3756 1260 c28 -48 86 -103 141 -132 148 -80 315 -46 425 85 26 32
48 62 48 67 0 6 -24 -5 -53 -24 -71 -46 -137 -67 -228 -73 -103 -8 -212 17
-281 63 -28 19 -56 38 -61 41 -5 3 -1 -9 9 -27z"/>
</g>
</svg>
